<svg width="23" height="29" viewBox="0 0 23 29" fill="none" xmlns="http://www.w3.org/2000/svg">
<path d="M11.5 10.0385C9.86096 10.0385 8.53226 11.3701 8.53226 13.0128C8.53226 14.6555 9.86096 15.9872 11.5 15.9872C13.139 15.9872 14.4677 14.6555 14.4677 13.0128C14.4677 11.3701 13.139 10.0385 11.5 10.0385Z" fill="black"/>
<path d="M5.56452 22.6795C5.56452 20.2154 7.55757 18.2179 10.0161 18.2179H12.9839C15.4424 18.2179 17.4355 20.2154 17.4355 22.6795C17.4355 23.5008 16.7711 24.1667 15.9516 24.1667H7.04839C6.22887 24.1667 5.56452 23.5008 5.56452 22.6795Z" fill="black"/>
<path fill-rule="evenodd" clip-rule="evenodd" d="M4.08065 0C1.82697 0 0 1.83104 0 4.08974V24.9103C0 27.169 1.82697 29 4.08064 29H18.9194C21.173 29 23 27.169 23 24.9103V8.84559C23 8.30111 22.8296 7.77033 22.5128 7.328L18.0417 1.08497C17.5539 0.403878 16.7686 0 15.9321 0H4.08065ZM2.22581 4.08974C2.22581 3.06306 3.05625 2.23077 4.08065 2.23077H14.8387V8.76997C14.8387 9.38597 15.337 9.88535 15.9516 9.88535H20.7742V24.9103C20.7742 25.9369 19.9438 26.7692 18.9194 26.7692H4.08064C3.05625 26.7692 2.22581 25.9369 2.22581 24.9103V4.08974Z" fill="black"/>
</svg>
