<svg width="14" height="20" viewBox="0 0 21 27" fill="none" xmlns="http://www.w3.org/2000/svg">
<path fill-rule="evenodd" clip-rule="evenodd" d="M13.4063 1.22917C13.4063 1.05082 13.2617 0.90625 13.0833 0.90625H4.04167C2.07991 0.90625 0.489586 2.49657 0.489586 4.45833V22.5417C0.489586 24.5034 2.07991 26.0937 4.04167 26.0937H16.9583C18.9201 26.0937 20.5104 24.5034 20.5104 22.5417V9.81495C20.5104 9.63661 20.3658 9.49203 20.1875 9.49203H14.375C13.84 9.49203 13.4063 9.05831 13.4063 8.52328V1.22917ZM14.375 13.8229C14.91 13.8229 15.3438 14.2566 15.3438 14.7917C15.3438 15.3267 14.91 15.7604 14.375 15.7604H6.625C6.08998 15.7604 5.65625 15.3267 5.65625 14.7917C5.65625 14.2566 6.08998 13.8229 6.625 13.8229H14.375ZM14.375 18.9896C14.91 18.9896 15.3438 19.4233 15.3438 19.9583C15.3438 20.4934 14.91 20.9271 14.375 20.9271H6.625C6.08998 20.9271 5.65625 20.4934 5.65625 19.9583C5.65625 19.4233 6.08998 18.9896 6.625 18.9896H14.375Z" fill="black"/>
<path d="M15.3438 1.64784C15.3438 1.40953 15.5926 1.25822 15.778 1.40792C15.9342 1.534 16.0746 1.68171 16.1943 1.84858L20.0863 7.27087C20.175 7.39432 20.079 7.55453 19.927 7.55453H15.6667C15.4883 7.55453 15.3438 7.40996 15.3438 7.23162V1.64784Z" fill="black"/>
</svg>
