<svg width="27" height="25" viewBox="0 0 27 25" fill="none" xmlns="http://www.w3.org/2000/svg">
<path d="M14.6172 0.870143C14.1194 0.0122816 12.8806 0.0122782 12.3828 0.870143L8.87714 6.91167C8.63124 7.33544 8.20622 7.62463 7.72176 7.69781L1.15194 8.6901C0.0484952 8.85676 -0.338565 10.25 0.520788 10.9619L5.41503 15.0168C5.86807 15.3921 6.08109 15.9842 5.97104 16.5621L4.69078 23.2854C4.4884 24.3482 5.60412 25.174 6.56144 24.6699L12.7478 21.4126C13.2186 21.1647 13.7814 21.1647 14.2522 21.4126L20.4386 24.6699C21.3959 25.174 22.5116 24.3482 22.3092 23.2854L21.029 16.5621C20.9189 15.9842 21.1319 15.3921 21.585 15.0168L26.4792 10.9619C27.3386 10.25 26.9515 8.85676 25.8481 8.6901L19.2782 7.69781C18.7938 7.62463 18.3688 7.33544 18.1229 6.91167L14.6172 0.870143Z" fill="#21A3EE"/>
</svg>
