<svg width="64" height="41" viewBox="0 0 64 41" fill="none" xmlns="http://www.w3.org/2000/svg">
<path d="M43.802 20.474H50.228V13.47H52.948V20.474H59.374V23.16H52.948V30.198H50.228V23.16H43.802V20.474Z" fill="black"/>
<path fill-rule="evenodd" clip-rule="evenodd" d="M9.03226 11.0123C9.03226 5.48268 13.9427 1 20 1C26.0573 1 30.9677 5.48268 30.9677 11.0123C30.9677 16.542 26.0573 21.0247 20 21.0247C13.9427 21.0247 9.03226 16.542 9.03226 11.0123ZM20 4.53377C16.0806 4.53377 12.9032 7.43432 12.9032 11.0123C12.9032 14.5904 16.0806 17.4909 20 17.4909C23.9194 17.4909 27.0968 14.5904 27.0968 11.0123C27.0968 7.43432 23.9194 4.53377 20 4.53377Z" fill="black"/>
<path fill-rule="evenodd" clip-rule="evenodd" d="M9.67742 28.0922C6.47061 28.0922 3.87097 30.4654 3.87097 33.3928V36.1923C3.87097 36.2349 3.90481 36.2712 3.95089 36.2781C14.5799 37.8623 25.4201 37.8623 36.0491 36.2781C36.0952 36.2712 36.129 36.2349 36.129 36.1923V33.3928C36.129 30.4654 33.5294 28.0922 30.3226 28.0922H29.4429C29.3749 28.0922 29.3073 28.102 29.2427 28.1213L27.0091 28.7871C22.4547 30.1447 17.5453 30.1447 12.9909 28.7871L10.7573 28.1213C10.6927 28.102 10.6251 28.0922 10.5571 28.0922H9.67742ZM0 33.3928C0 28.5137 4.33273 24.5584 9.67742 24.5584H10.5571C11.0332 24.5584 11.5063 24.6272 11.9589 24.7621L14.1925 25.4279C17.9661 26.5527 22.0339 26.5527 25.8075 25.4279L28.0411 24.7621C28.4937 24.6272 28.9668 24.5584 29.4429 24.5584H30.3226C35.6673 24.5584 40 28.5137 40 33.3928V36.1923C40 37.9668 38.5913 39.4798 36.6728 39.7657C25.6307 41.4114 14.3693 41.4114 3.32715 39.7657C1.40873 39.4798 0 37.9668 0 36.1923V33.3928Z" fill="black"/>
</svg>
