<svg width="26" height="21" viewBox="0 0 26 21" fill="none" xmlns="http://www.w3.org/2000/svg">
<path d="M7.9 0.4375C3.96045 0.4375 0.604164 3.38318 0.604164 7.20888C0.604164 9.84806 1.83999 12.07 3.47786 13.9106C5.1101 15.7449 7.21595 17.2845 9.11971 18.5732L12.4044 20.7965C12.7641 21.04 13.2359 21.04 13.5956 20.7965L16.8803 18.5732C18.784 17.2845 20.8899 15.7449 22.5221 13.9106C24.16 12.07 25.3958 9.84806 25.3958 7.20888C25.3958 3.38318 22.0395 0.4375 18.1 0.4375C16.0692 0.4375 14.2823 1.3897 13 2.62176C11.7177 1.3897 9.93075 0.4375 7.9 0.4375Z" fill="#FF0000"/>
</svg>
