<svg width="35" height="23" viewBox="0 0 35 23" fill="none" xmlns="http://www.w3.org/2000/svg">
<path d="M25.954 10.898H29.356V7.19H30.796V10.898H34.198V12.32H30.796V16.046H29.356V12.32H25.954V10.898Z" fill="white"/>
<path fill-rule="evenodd" clip-rule="evenodd" d="M5.19355 5.75709C5.19355 2.57754 8.01704 0 11.5 0C14.983 0 17.8065 2.57754 17.8065 5.75709C17.8065 8.93665 14.983 11.5142 11.5 11.5142C8.01704 11.5142 5.19355 8.93665 5.19355 5.75709ZM11.5 2.03192C9.24632 2.03192 7.41935 3.69973 7.41935 5.75709C7.41935 7.81445 9.24632 9.48227 11.5 9.48227C13.7537 9.48227 15.5806 7.81445 15.5806 5.75709C15.5806 3.69973 13.7537 2.03192 11.5 2.03192Z" fill="white"/>
<path fill-rule="evenodd" clip-rule="evenodd" d="M5.56452 15.578C3.7206 15.578 2.22581 16.9426 2.22581 18.6259V20.2355C2.22581 20.2601 2.24526 20.281 2.27176 20.2849C8.38346 21.1958 14.6165 21.1958 20.7282 20.2849C20.7547 20.281 20.7742 20.2601 20.7742 20.2355V18.6259C20.7742 16.9426 19.2794 15.578 17.4355 15.578H16.9297C16.8906 15.578 16.8517 15.5837 16.8145 15.5947L15.5302 15.9776C12.9114 16.7582 10.0886 16.7582 7.46978 15.9776L6.18547 15.5947C6.14829 15.5837 6.10943 15.578 6.07032 15.578H5.56452ZM0 18.6259C0 15.8204 2.49132 13.5461 5.56452 13.5461H6.07032C6.34408 13.5461 6.61613 13.5856 6.87637 13.6632L8.16068 14.046C10.3305 14.6928 12.6695 14.6928 14.8393 14.046L16.1236 13.6632C16.3839 13.5856 16.6559 13.5461 16.9297 13.5461H17.4355C20.5087 13.5461 23 15.8204 23 18.6259V20.2355C23 21.2559 22.19 22.1259 21.0869 22.2903C14.7377 23.2366 8.26234 23.2366 1.91311 22.2903C0.810021 22.1259 0 21.2559 0 20.2355V18.6259Z" fill="white"/>
</svg>
