<svg width="30" height="31" viewBox="0 0 30 31" fill="none" xmlns="http://www.w3.org/2000/svg">
<path fill-rule="evenodd" clip-rule="evenodd" d="M13.9718 0.367492C14.6418 0.186748 15.3582 0.186747 16.0282 0.367492L21.2768 1.78345C24.015 2.52215 26.6155 3.6082 28.9958 5.00717C30.8471 6.09527 29.9696 8.63001 27.7415 8.63001H2.25847C0.0304005 8.63001 -0.847147 6.09527 1.00421 5.00717C3.38448 3.6082 5.98495 2.52215 8.72315 1.78345L13.9718 0.367492ZM15.2535 2.57985C15.0883 2.53528 14.9117 2.53528 14.7465 2.57985L9.49783 3.99581C7.42208 4.55579 5.43327 5.33506 3.57477 6.31552H26.4252C24.5667 5.33506 22.5779 4.55579 20.5022 3.9958L15.2535 2.57985Z" fill="white"/>
<path d="M1.37616 29.0747C1.37616 28.4356 1.96645 27.9174 2.6946 27.9174H27.3054C28.0336 27.9174 28.6239 28.4356 28.6239 29.0747C28.6239 29.7138 28.0336 30.2319 27.3054 30.2319H2.6946C1.96645 30.2319 1.37616 29.7138 1.37616 29.0747Z" fill="white"/>
<path d="M4.89199 22.9027C4.89199 23.5418 5.48228 24.06 6.21043 24.06C6.93858 24.06 7.52887 23.5418 7.52887 22.9027L7.52887 13.6447C7.52887 13.0056 6.93858 12.4875 6.21043 12.4875C5.48228 12.4875 4.89199 13.0056 4.89199 13.6447V22.9027Z" fill="white"/>
<path d="M15 24.06C14.2719 24.06 13.6816 23.5418 13.6816 22.9027V13.6447C13.6816 13.0056 14.2719 12.4875 15 12.4875C15.7282 12.4875 16.3184 13.0056 16.3184 13.6447V22.9027C16.3184 23.5418 15.7282 24.06 15 24.06Z" fill="white"/>
<path d="M22.4711 22.9027C22.4711 23.5418 23.0614 24.06 23.7896 24.06C24.5177 24.06 25.108 23.5418 25.108 22.9027V13.6447C25.108 13.0056 24.5177 12.4875 23.7896 12.4875C23.0614 12.4875 22.4711 13.0056 22.4711 13.6447V22.9027Z" fill="white"/>
</svg>
