<svg width="40" height="40" viewBox="0 0 40 40" fill="none" xmlns="http://www.w3.org/2000/svg">
<path fill-rule="evenodd" clip-rule="evenodd" d="M9.03226 10.0123C9.03226 4.48268 13.9427 0 20 0C26.0573 0 30.9677 4.48268 30.9677 10.0123C30.9677 15.542 26.0573 20.0247 20 20.0247C13.9427 20.0247 9.03226 15.542 9.03226 10.0123ZM20 3.53377C16.0806 3.53377 12.9032 6.43432 12.9032 10.0123C12.9032 13.5904 16.0806 16.4909 20 16.4909C23.9194 16.4909 27.0968 13.5904 27.0968 10.0123C27.0968 6.43432 23.9194 3.53377 20 3.53377Z" fill="black"/>
<path fill-rule="evenodd" clip-rule="evenodd" d="M9.67742 27.0922C6.47061 27.0922 3.87097 29.4654 3.87097 32.3928V35.1923C3.87097 35.2349 3.90481 35.2712 3.95089 35.2781C14.5799 36.8623 25.4201 36.8623 36.0491 35.2781C36.0952 35.2712 36.129 35.2349 36.129 35.1923V32.3928C36.129 29.4654 33.5294 27.0922 30.3226 27.0922H29.4429C29.3749 27.0922 29.3073 27.102 29.2427 27.1213L27.0091 27.7871C22.4547 29.1447 17.5453 29.1447 12.9909 27.7871L10.7573 27.1213C10.6927 27.102 10.6251 27.0922 10.5571 27.0922H9.67742ZM0 32.3928C0 27.5137 4.33273 23.5584 9.67742 23.5584H10.5571C11.0332 23.5584 11.5063 23.6272 11.9589 23.7621L14.1925 24.4279C17.9661 25.5527 22.0339 25.5527 25.8075 24.4279L28.0411 23.7621C28.4937 23.6272 28.9668 23.5584 29.4429 23.5584H30.3226C35.6673 23.5584 40 27.5137 40 32.3928V35.1923C40 36.9668 38.5913 38.4798 36.6728 38.7657C25.6307 40.4114 14.3693 40.4114 3.32715 38.7657C1.40873 38.4798 0 36.9668 0 35.1923V32.3928Z" fill="black"/>
</svg>
