<svg width="30" height="31" viewBox="0 0 30 31" fill="none" xmlns="http://www.w3.org/2000/svg">
<path fill-rule="evenodd" clip-rule="evenodd" d="M6.77419 7.74119C6.77419 3.59394 10.457 0.231934 15 0.231934C19.543 0.231934 23.2258 3.59394 23.2258 7.74119C23.2258 11.8884 19.543 15.2504 15 15.2504C10.457 15.2504 6.77419 11.8884 6.77419 7.74119ZM15 2.88226C12.0604 2.88226 9.67742 5.05767 9.67742 7.74119C9.67742 10.4247 12.0604 12.6001 15 12.6001C17.9396 12.6001 20.3226 10.4247 20.3226 7.74119C20.3226 5.05767 17.9396 2.88226 15 2.88226Z" fill="white"/>
<path fill-rule="evenodd" clip-rule="evenodd" d="M7.25806 20.5511C4.85295 20.5511 2.90323 22.331 2.90323 24.5266V26.6261C2.90323 26.6581 2.92861 26.6854 2.96317 26.6905C10.935 27.8786 19.0651 27.8786 27.0368 26.6905C27.0714 26.6854 27.0968 26.6581 27.0968 26.6261V24.5266C27.0968 22.331 25.147 20.5511 22.7419 20.5511H22.0822C22.0312 20.5511 21.9805 20.5584 21.932 20.5729L20.2568 21.0723C16.841 22.0905 13.159 22.0905 9.74319 21.0723L8.06801 20.5729C8.01951 20.5584 7.96882 20.5511 7.91781 20.5511H7.25806ZM0 24.5266C0 20.8672 3.24955 17.9008 7.25806 17.9008H7.91781C8.27489 17.9008 8.62973 17.9523 8.96917 18.0535L10.6444 18.5528C13.4746 19.3965 16.5254 19.3965 19.3556 18.5528L21.0308 18.0535C21.3703 17.9523 21.7251 17.9008 22.0822 17.9008H22.7419C26.7505 17.9008 30 20.8672 30 24.5266V26.6261C30 27.957 28.9434 29.0917 27.5046 29.3062C19.223 30.5405 10.777 30.5405 2.49536 29.3062C1.05655 29.0917 0 27.957 0 26.6261V24.5266Z" fill="white"/>
</svg>
