<svg width="30" height="31" viewBox="0 0 30 31" fill="none" xmlns="http://www.w3.org/2000/svg">
<path d="M11.5714 18.3408C12.2815 18.3408 12.8571 18.8936 12.8571 19.5755V22.868C12.8571 23.5499 12.2815 24.1027 11.5714 24.1027C10.8613 24.1027 10.2857 23.5499 10.2857 22.868V19.5755C10.2857 18.8936 10.8613 18.3408 11.5714 18.3408Z" fill="white"/>
<path d="M19.7143 19.5755C19.7143 18.8936 19.1387 18.3408 18.4286 18.3408C17.7185 18.3408 17.1429 18.8936 17.1429 19.5755V22.868C17.1429 23.5499 17.7185 24.1027 18.4286 24.1027C19.1387 24.1027 19.7143 23.5499 19.7143 22.868V19.5755Z" fill="white"/>
<path fill-rule="evenodd" clip-rule="evenodd" d="M10.9706 2.08417C11.3256 1.49363 11.1149 0.738504 10.5 0.397556C9.88505 0.0566075 9.09872 0.258941 8.74368 0.849482L5.31511 6.55224C5.26374 6.63767 5.22422 6.72655 5.19605 6.81712H4.71429C2.11066 6.81712 0 8.84401 0 11.3443C0 12.7586 0.675371 14.0215 1.73331 14.8517L2.87663 22.3992L3.64247 25.845C4.10133 27.9096 5.8564 29.4778 8.03376 29.7688C12.6557 30.3863 17.3443 30.3863 21.9662 29.7688C24.1436 29.4778 25.8987 27.9096 26.3575 25.845L27.1234 22.3992L28.2667 14.8517C29.3246 14.0215 30 12.7586 30 11.3443C30 8.84401 27.8893 6.81712 25.2857 6.81712H24.804C24.7758 6.72655 24.7363 6.63767 24.6849 6.55224L21.2563 0.849482C20.9013 0.258941 20.115 0.0566075 19.5 0.397556C18.8851 0.738504 18.6744 1.49363 19.0294 2.08417L21.8749 6.81712H8.12509L10.9706 2.08417ZM25.5145 15.8662C25.4387 15.8697 25.3624 15.8715 25.2857 15.8715H4.71429C4.63758 15.8715 4.5613 15.8697 4.48549 15.8662L5.40909 21.9633L6.15726 25.3296C6.39037 26.3785 7.28199 27.1751 8.38814 27.323C12.7749 27.9091 17.2251 27.9091 21.6119 27.323C22.718 27.1751 23.6096 26.3785 23.8427 25.3296L24.5909 21.9633L25.5145 15.8662ZM2.57143 11.3443C2.57143 10.2078 3.53082 9.28649 4.71429 9.28649H25.2857C26.4692 9.28649 27.4286 10.2078 27.4286 11.3443C27.4286 12.4808 26.4692 13.4021 25.2857 13.4021H4.71429C3.53082 13.4021 2.57143 12.4808 2.57143 11.3443Z" fill="white"/>
</svg>
