<svg width="28" height="31" viewBox="0 0 28 31" fill="none" xmlns="http://www.w3.org/2000/svg">
<path fill-rule="evenodd" clip-rule="evenodd" d="M12.7324 0.555682C13.5207 0.124017 14.4793 0.124018 15.2676 0.555683L26.6574 6.79241C27.4861 7.24614 28 8.107 28 9.04131V21.4226C28 22.3569 27.4861 23.2177 26.6574 23.6715L15.2676 29.9082C14.4793 30.3399 13.5207 30.3399 12.7324 29.9082L1.34256 23.6715C0.513918 23.2177 0 22.3569 0 21.4226V9.04131C0 8.107 0.513921 7.24614 1.34256 6.79241L12.7324 0.555682ZM14.1152 2.60014C14.0436 2.56089 13.9564 2.56089 13.8848 2.60014L2.49493 8.83686C2.4196 8.87811 2.37288 8.95637 2.37288 9.04131V21.4226C2.37288 21.5075 2.4196 21.5858 2.49493 21.627L13.8848 27.8637C13.9564 27.903 14.0436 27.903 14.1152 27.8637L25.5051 21.627C25.5804 21.5858 25.6271 21.5075 25.6271 21.4226V9.04131C25.6271 8.95637 25.5804 8.87811 25.5051 8.83686L14.1152 2.60014Z" fill="white"/>
<path fill-rule="evenodd" clip-rule="evenodd" d="M6.48588 15.2319C6.48588 11.1417 9.85006 7.82583 14 7.82583C18.1499 7.82583 21.5141 11.1417 21.5141 15.2319C21.5141 19.3222 18.1499 22.638 14 22.638C9.85006 22.638 6.48588 19.3222 6.48588 15.2319ZM14 10.1646C11.1606 10.1646 8.85876 12.4333 8.85876 15.2319C8.85876 18.0305 11.1606 20.2993 14 20.2993C16.8394 20.2993 19.1412 18.0305 19.1412 15.2319C19.1412 12.4333 16.8394 10.1646 14 10.1646Z" fill="white"/>
</svg>
