<svg width="30" height="23" viewBox="0 0 30 23" fill="none" xmlns="http://www.w3.org/2000/svg">
<path fill-rule="evenodd" clip-rule="evenodd" d="M9.31955 1.12036C9.24328 0.636315 8.866 0.270526 8.40616 0.234784C7.94632 0.199041 7.52313 0.50261 7.38161 0.969727L4.59502 10.1674H1C0.447715 10.1674 0 10.644 0 11.2319C0 11.8199 0.447715 12.2965 1 12.2965H5.32323C5.75726 12.2965 6.14174 11.9984 6.27496 11.5587L8.02582 5.77959L10.4784 21.3435C10.5557 21.834 10.9418 22.2022 11.4083 22.2302C11.8747 22.2583 12.2973 21.9387 12.426 21.4606L15.6653 9.42449L17.3718 15.7824C17.4818 16.1922 17.8107 16.4926 18.2078 16.5461C18.605 16.5996 18.9938 16.3958 19.1962 16.0281L21.2499 12.2965H22.8047C23.24 13.9347 24.655 15.1352 26.3333 15.1352C28.3584 15.1352 30 13.3876 30 11.2319C30 9.07625 28.3584 7.32872 26.3333 7.32872C24.655 7.32872 23.24 8.52913 22.8047 10.1674H20.6768C20.3218 10.1674 19.9934 10.3678 19.8139 10.6938L18.6525 12.8042L16.6282 5.26208C16.5056 4.80522 16.1134 4.49019 15.667 4.49001C15.2207 4.48984 14.8283 4.80457 14.7053 5.26134L11.72 16.3535L9.31955 1.12036ZM24.6667 11.2319C24.6667 10.2521 25.4129 9.45775 26.3333 9.45775C27.2538 9.45775 28 10.2521 28 11.2319C28 12.2118 27.2538 13.0061 26.3333 13.0061C25.4129 13.0061 24.6667 12.2118 24.6667 11.2319Z" fill="white"/>
</svg>
