<svg width="40" height="41" viewBox="0 0 40 41" fill="none" xmlns="http://www.w3.org/2000/svg">
<path d="M15.4286 24.7488C16.3753 24.7488 17.1429 25.5043 17.1429 26.4362V30.936C17.1429 31.8679 16.3753 32.6234 15.4286 32.6234C14.4818 32.6234 13.7143 31.8679 13.7143 30.936V26.4362C13.7143 25.5043 14.4818 24.7488 15.4286 24.7488Z" fill="black"/>
<path d="M26.2857 26.4362C26.2857 25.5043 25.5182 24.7488 24.5714 24.7488C23.6247 24.7488 22.8571 25.5043 22.8571 26.4362V30.936C22.8571 31.8679 23.6247 32.6234 24.5714 32.6234C25.5182 32.6234 26.2857 31.8679 26.2857 30.936V26.4362Z" fill="black"/>
<path fill-rule="evenodd" clip-rule="evenodd" d="M14.6275 2.53138C15.1009 1.72431 14.8199 0.692313 14 0.226351C13.1801 -0.239612 12.1316 0.0369108 11.6582 0.843982L7.08681 8.63775C7.01832 8.75451 6.96563 8.87598 6.92807 8.99976H6.28571C2.81421 8.99976 0 11.7698 0 15.1869C0 17.1198 0.900494 18.8457 2.31107 19.9803L3.83551 30.2953L4.85663 35.0046C5.46844 37.8262 7.80854 39.9694 10.7117 40.367C16.8742 41.211 23.1258 41.211 29.2883 40.367C32.1915 39.9694 34.5316 37.8262 35.1434 35.0046L36.1645 30.2953L37.6889 19.9803C39.0995 18.8457 40 17.1198 40 15.1869C40 11.7698 37.1858 8.99976 33.7143 8.99976H33.0719C33.0344 8.87598 32.9817 8.75451 32.9132 8.63775L28.3418 0.843982C27.8684 0.0369108 26.8199 -0.239612 26 0.226351C25.1801 0.692313 24.8991 1.72431 25.3725 2.53138L29.1666 8.99976H10.8334L14.6275 2.53138ZM34.0194 21.3669C33.9183 21.3716 33.8166 21.374 33.7143 21.374H6.28571C6.18344 21.374 6.08173 21.3716 5.98065 21.3669L7.21212 29.6995L8.20968 34.3002C8.5205 35.7336 9.70932 36.8224 11.1842 37.0244C17.0332 37.8255 22.9668 37.8255 28.8158 37.0244C30.2907 36.8224 31.4795 35.7336 31.7903 34.3002L32.7879 29.6995L34.0194 21.3669ZM3.42857 15.1869C3.42857 13.6337 4.70776 12.3746 6.28571 12.3746H33.7143C35.2922 12.3746 36.5714 13.6337 36.5714 15.1869C36.5714 16.7401 35.2922 17.9992 33.7143 17.9992H6.28571C4.70776 17.9992 3.42857 16.7401 3.42857 15.1869Z" fill="black"/>
</svg>
