<svg width="24" height="25" viewBox="0 0 24 25" fill="none" xmlns="http://www.w3.org/2000/svg">
<path fill-rule="evenodd" clip-rule="evenodd" d="M8.77648 1.54353C9.06051 1.05141 8.89196 0.422142 8.4 0.138019C7.90804 -0.146105 7.27898 0.0225066 6.99494 0.514623L4.25209 5.26692C4.21099 5.33812 4.17938 5.41218 4.15684 5.48766H3.77143C1.68853 5.48766 0 7.17673 0 9.2603C0 10.4389 0.540296 11.4913 1.38664 12.1831L2.3013 18.4727L2.91398 21.3443C3.28106 23.0647 4.68512 24.3716 6.42701 24.614C10.1245 25.1287 13.8755 25.1287 17.573 24.614C19.3149 24.3716 20.7189 23.0647 21.086 21.3443L21.6987 18.4727L22.6134 12.1831C23.4597 11.4913 24 10.4389 24 9.2603C24 7.17673 22.3115 5.48766 20.2286 5.48766H19.8432C19.8206 5.41218 19.789 5.33812 19.7479 5.26692L17.0051 0.514623C16.721 0.0225066 16.092 -0.146105 15.6 0.138019C15.108 0.422142 14.9395 1.05141 15.2235 1.54353L17.4999 5.48766H6.50007L8.77648 1.54353ZM20.4116 13.0286C20.351 13.0315 20.2899 13.0329 20.2286 13.0329H3.77143C3.71006 13.0329 3.64904 13.0315 3.58839 13.0286L4.32727 18.1094L4.92581 20.9147C5.1123 21.7888 5.82559 22.4527 6.71051 22.5758C10.2199 23.0643 13.7801 23.0643 17.2895 22.5758C18.1744 22.4527 18.8877 21.7888 19.0742 20.9147L19.6727 18.1095L20.4116 13.0286ZM2.05714 9.2603C2.05714 8.31322 2.82466 7.54546 3.77143 7.54546H20.2286C21.1753 7.54546 21.9429 8.31322 21.9429 9.2603C21.9429 10.2074 21.1753 10.9751 20.2286 10.9751H3.77143C2.82466 10.9751 2.05714 10.2074 2.05714 9.2603Z" fill="white"/>
</svg>
